<svg xmlns:xlink="http://www.w3.org/1999/xlink" xmlns="http://www.w3.org/2000/svg" width="89" height="16" viewBox="0 0 89 16" fill="none">
<path fill-rule="evenodd" clip-rule="evenodd" d="M33.5845 5.86398L28.8972 5.23123L26.2789 0.337181C26.2789 0.147077 26.1314 0 25.9411 0C25.751 0 25.6035 0.147077 25.6035 0.337181L22.9838 5.25204L18.4441 5.86398C18.2749 5.80014 18.0857 5.9056 18.0218 6.0957C17.9581 6.2858 18.0429 6.47563 18.2329 6.53834L21.8436 10.3986L20.9351 15.4395C20.8295 15.5868 20.8504 15.8197 20.999 15.9251C21.1462 16.0514 21.3574 16.0098 21.463 15.8613L25.9611 13.5413L30.4589 15.8613C30.5644 16.0087 30.7756 16.0514 30.9231 15.9251C31.0704 15.7989 31.1132 15.588 30.9868 15.4395L30.1005 10.5041L33.8165 6.53834C33.9859 6.4745 34.0693 6.2858 34.0068 6.0957C33.9429 5.9056 33.7537 5.80014 33.5845 5.86398Z" fill="url(#paint0_linear_211_14)"/>
<path fill-rule="evenodd" clip-rule="evenodd" d="M15.5836 5.86398L10.8963 5.23123L8.27806 0.337181C8.27806 0.147077 8.13054 0 7.94022 0C7.75018 0 7.60266 0.147077 7.60266 0.337181L4.98297 5.25204L0.443213 5.86398C0.274011 5.80014 0.0848188 5.9056 0.0209103 6.0957C-0.0427167 6.2858 0.0420254 6.47563 0.232062 6.53834L3.84275 10.3986L2.93424 15.4395C2.82866 15.5868 2.8495 15.8197 2.99815 15.9251C3.14539 16.0514 3.35654 16.0098 3.46212 15.8613L7.96021 13.5413L12.458 15.8613C12.5636 16.0087 12.7747 16.0514 12.9223 15.9251C13.0695 15.7989 13.1123 15.588 12.9859 15.4395L12.0996 10.5041L15.8156 6.53834C15.9851 6.4745 16.0684 6.2858 16.0059 6.0957C15.942 5.9056 15.7528 5.80014 15.5836 5.86398Z" fill="url(#paint1_linear_211_14)"/>
<path fill-rule="evenodd" clip-rule="evenodd" d="M51.5853 5.86398L46.898 5.23123L44.2798 0.337181C44.2798 0.147077 44.1322 0 43.9419 0C43.7519 0 43.6044 0.147077 43.6044 0.337181L40.9847 5.25204L36.4449 5.86398C36.2757 5.80014 36.0865 5.9056 36.0226 6.0957C35.959 6.2858 36.0437 6.47563 36.2338 6.53834L39.8445 10.3986L38.9359 15.4395C38.8304 15.5868 38.8512 15.8197 38.9999 15.9251C39.1471 16.0514 39.3583 16.0098 39.4638 15.8613L43.9619 13.5413L48.4597 15.8613C48.5653 16.0087 48.7765 16.0514 48.924 15.9251C49.0712 15.7989 49.114 15.588 48.9876 15.4395L48.1013 10.5041L51.8173 6.53834C51.9868 6.4745 52.0701 6.2858 52.0076 6.0957C51.9437 5.9056 51.7545 5.80014 51.5853 5.86398Z" fill="url(#paint2_linear_211_14)"/>
<path fill-rule="evenodd" clip-rule="evenodd" d="M69.5862 5.86398L64.8989 5.23123L62.2806 0.337181C62.2806 0.147077 62.1331 0 61.9428 0C61.7527 0 61.6052 0.147077 61.6052 0.337181L58.9855 5.25204L54.4458 5.86398C54.2766 5.80014 54.0874 5.9056 54.0235 6.0957C53.9598 6.2858 54.0446 6.47563 54.2346 6.53834L57.8453 10.3986L56.9368 15.4395C56.8312 15.5868 56.8521 15.8197 57.0007 15.9251C57.148 16.0514 57.3591 16.0098 57.4647 15.8613L61.9628 13.5413L66.4606 15.8613C66.5662 16.0087 66.7773 16.0514 66.9248 15.9251C67.0721 15.7989 67.1149 15.588 66.9885 15.4395L66.1022 10.5041L69.8182 6.53834C69.9877 6.4745 70.071 6.2858 70.0085 6.0957C69.9446 5.9056 69.7554 5.80014 69.5862 5.86398Z" fill="url(#paint3_linear_211_14)"/>
<path fill-rule="evenodd" clip-rule="evenodd" d="M87.587 5.86398L82.8998 5.23123L80.2815 0.337181C80.2815 0.147077 80.134 0 79.9436 0C79.7536 0 79.6061 0.147077 79.6061 0.337181L76.9864 5.25204L72.4466 5.86398C72.2774 5.80014 72.0882 5.9056 72.0243 6.0957C71.9607 6.2858 72.0454 6.47563 72.2355 6.53834L75.8462 10.3986L74.9377 15.4395C74.8321 15.5868 74.8529 15.8197 75.0016 15.9251C75.1488 16.0514 75.36 16.0098 75.4655 15.8613L79.9636 13.5413L84.4614 15.8613C84.567 16.0087 84.7782 16.0514 84.9257 15.9251C85.0729 15.7989 85.1157 15.588 84.9893 15.4395L84.103 10.5041L87.819 6.53834C87.9885 6.4745 88.0718 6.2858 88.0093 6.0957C87.9454 5.9056 87.7562 5.80014 87.587 5.86398Z" fill="url(#paint4_linear_211_14)"/>
<defs>
<linearGradient id="paint0_linear_211_14" x1="18.0009" y1="0" x2="34.0275" y2="0" gradientUnits="userSpaceOnUse">
<stop offset="0.26" stop-color="#FFC107"/>
<stop offset="0.48" stop-color="#FFC107"/>
<stop offset="1" stop-color="#FFC107"/>
</linearGradient>
<linearGradient id="paint1_linear_211_14" x1="0" y1="0" x2="16.0266" y2="0" gradientUnits="userSpaceOnUse">
<stop offset="0.26" stop-color="#FFC107"/>
<stop offset="0.48" stop-color="#FFC107"/>
<stop offset="1" stop-color="#FFC107"/>
</linearGradient>
<linearGradient id="paint2_linear_211_14" x1="36.0017" y1="0" x2="52.0284" y2="0" gradientUnits="userSpaceOnUse">
<stop offset="0.26" stop-color="#FFC107"/>
<stop offset="0.48" stop-color="#FFC107"/>
<stop offset="1" stop-color="#FFC107"/>
</linearGradient>
<linearGradient id="paint3_linear_211_14" x1="54.0026" y1="0" x2="70.0292" y2="0" gradientUnits="userSpaceOnUse">
<stop offset="0.26" stop-color="#FFC107"/>
<stop offset="0.48" stop-color="#FFC107"/>
<stop offset="1" stop-color="#FFC107"/>
</linearGradient>
<linearGradient id="paint4_linear_211_14" x1="72.0034" y1="0" x2="88.0301" y2="0" gradientUnits="userSpaceOnUse">
<stop offset="0.26" stop-color="#FFC107"/>
<stop offset="0.48" stop-color="#FFC107"/>
<stop offset="1" stop-color="#FFC107"/>
</linearGradient>
</defs>
</svg>