<svg xmlns:xlink="http://www.w3.org/1999/xlink" xmlns="http://www.w3.org/2000/svg" width="122" height="27" viewBox="0 0 122 27" fill="none">
<path d="M12.3218 18.7729C10.4682 18.5617 7.2959 18.4901 6.15989 18.5844C5.73957 18.6193 5.63904 18.7583 5.92833 18.8045C14.6411 20.1965 18.4473 27.669 26.067 26.7532C29.2796 26.3817 31.9549 22.9756 31.6497 20.0991C31.5128 18.8077 30.4834 17.472 28.678 17.2329C24.9067 16.7332 21.8466 20.5739 17.14 19.228C16.1291 18.939 15.5197 18.6269 14.3444 17.8102C14.1865 17.6824 14.2808 17.4835 14.4767 17.539C15.157 17.6179 15.4506 17.5163 15.8894 17.4337C14.5925 15.3903 15.118 11.4322 16.9038 9.82542C17.1716 9.5844 17.4368 9.3937 17.6998 9.24654C17.386 9.0452 17.0219 8.89054 16.6029 8.78883C16.4367 8.73555 16.4632 8.49337 16.6374 8.47902C22.1196 8.02552 25.4102 13.838 27.7819 13.2162C29.3575 12.7955 29.6982 11.3804 28.7912 10.0688C26.2962 6.46085 21.3595 3.70509 16.3947 4.63009C16.1348 4.70185 15.968 4.73006 15.6852 4.76627C13.5466 0.727288 10.2124 2.55888 9.70409 5.28345C9.6897 5.36082 9.7431 5.376 9.7792 5.30589C10.234 4.51254 10.7086 3.94653 11.2294 3.71062C13.7534 2.56729 16.0908 6.82156 12.4177 8.83437C12.2928 9.05023 11.961 8.91512 12.0214 8.6736C12.074 8.46326 12.3046 7.01606 11.6253 7.59635C10.0468 8.94539 7.88666 12.9492 7.32735 14.9272C9.03556 15.0631 10.6929 15.404 12.0295 16.0986C12.2266 16.2011 12.1523 16.3732 11.9309 16.3502C9.74065 16.1665 6.10498 16.4183 6.9018 16.5571C8.85822 16.8978 10.6793 17.3539 12.4977 18.493C12.7273 18.6497 12.5856 18.8619 12.3218 18.7729ZM30.1829 22.1821C26.9749 22.7108 24.0252 22.2946 22.7477 21.8077C23.7695 23.8871 26.0858 24.5212 28.3913 24.584C28.4709 24.3349 28.6352 23.9627 28.8239 23.6648C27.0221 23.7622 25.3108 23.4286 24.3721 22.8791C26.4437 23.4137 27.7855 23.3088 29.1911 23.1632C29.4957 22.7574 29.8142 22.4335 30.1829 22.1821ZM27.9515 20.0991C27.0338 19.6756 26.5527 18.8884 27.2937 18.1829C27.8675 17.6366 30.8963 18.167 30.7367 19.228C30.6897 19.54 30.3648 19.9782 30.0242 20.2938C29.5047 20.7752 28.8412 21.73 30.1498 21.65C31.0617 21.5752 31.0095 22.217 30.6827 22.4493C29.2065 23.4983 29.1687 24.3631 28.8142 25.1311C25.2169 25.2467 23.3758 24.2916 21.6496 21.4471C21.3337 20.9266 21.6288 20.7161 22.1867 20.9358C22.7701 21.1655 24.8291 21.6782 26.4617 21.7335C27.1568 21.757 28.124 21.8004 28.6171 21.5429C29.1591 21.2599 28.8239 20.5017 27.9515 20.0991Z" fill="white"/>
<path d="M3.58327 21.3904C3.40851 21.395 3.33209 21.2617 3.39345 21.1018C4.1568 19.1126 4.62383 18.125 5.48285 16.912C5.58493 16.7679 5.69465 16.6984 5.29677 16.7745C4.8989 16.8506 4.1568 17.0174 4.1568 17.0174C3.89179 17.0452 3.8245 16.9702 3.95176 16.656C4.75405 14.6771 7.80164 10.1401 8.78401 8.89396C6.05949 4.18478 12.2662 -1.67837 16.2939 3.86284C14.6246 -2.13814 3.74855 0.353419 7.22345 9.57067C5.34422 11.5874 1.222 17.1842 0.0226947 19.5737C-0.0481757 19.6971 0.0572981 19.8658 0.195878 19.8304C0.81874 19.6712 3.07489 18.901 2.77466 19.2733C2.32049 19.9089 1.57328 21.1571 0.680659 23.1844C0.595232 23.3703 0.699208 23.5252 0.901172 23.4855C9.72621 21.5551 12.1123 25.1171 20.3621 26.7203C14.5705 25.1409 10.9253 21.1906 3.58327 21.3904Z" fill="white"/>
<path d="M21.3477 12.9871C22.851 13.866 24.1954 14.3453 25.6728 14.8133C23.5275 17.0057 19.5834 16.2362 21.3477 12.9871Z" fill="#32D889"/>
<path d="M31.0492 14.0907C30.5956 14.5601 29.6434 15.0373 28.9158 15.0491C30.9706 16.8711 31.8805 15.9132 31.0492 14.0907Z" fill="#32D889"/>
<path d="M27.9109 1.9934C30.2216 2.64577 31.4672 4.9142 30.6929 7.05998C30.6321 7.22844 30.5606 7.39104 30.4795 7.54743C33.4853 11.119 34.685 16.4224 32.6416 21.2503C34.2459 16.1574 32.3236 11.4418 29.1777 8.15927C29.3794 7.86856 29.5276 7.57521 29.628 7.28388C29.6886 7.10799 29.7318 6.93284 29.7588 6.75945C30.1652 4.15195 26.9138 1.94306 24.2551 3.62376C24.2536 3.6247 24.2521 3.62564 24.2506 3.62658C24.0377 3.76155 23.8286 3.92149 23.6255 4.10819C23.5634 4.16532 23.5018 4.22495 23.4409 4.28714C22.2068 3.81559 20.9733 3.55513 19.8197 3.54205C20.9388 3.33104 22.0288 3.29798 23.0739 3.41864C24.1989 2.10655 26.1124 1.48557 27.9109 1.9934Z" fill="#32D889"/>
<path d="M39.0451 22.6319H44.6027L44.9737 21.181H39.0451C38.7162 21.181 38.3957 21.3064 38.1385 21.5113C37.8897 21.7078 37.6958 21.9879 37.6157 22.3057L36.9663 24.8564C36.9409 24.9693 36.9283 25.0697 36.9283 25.1658C36.9283 25.4335 37.0127 25.6801 37.1687 25.8766C37.3247 26.0815 37.544 26.2278 37.8137 26.2948C37.9108 26.3199 38.0119 26.3324 38.1133 26.3324H43.6497L44.0208 24.8773H38.4674L39.0367 22.6528C39.0367 22.6501 39.0384 22.6492 39.0429 22.6466C39.0455 22.6452 39.0489 22.6432 39.0535 22.6402C39.0578 22.6402 39.0535 22.636 39.0492 22.636C39.0451 22.636 39.0408 22.6319 39.0451 22.6319Z" fill="white"/>
<path d="M68.0053 22.9413L67.2295 26.2278H65.6862L66.8709 21.2687H68.4144L72.4118 24.5469L73.2044 21.2687H74.7435L73.5586 26.2278H72.0195L68.0053 22.9413Z" fill="white"/>
<path d="M64.3286 26.2278L65.5134 21.2687H63.9405L62.7557 26.2278H64.3286Z" fill="white"/>
<path fill-rule="evenodd" clip-rule="evenodd" d="M46.6773 25.4418L46.2261 26.3156H44.6407L47.2002 21.2687H52.9096L53.0444 26.3114H51.4506L51.4379 25.4418H46.6773ZM51.3705 22.636H48.073L47.3605 24.0577H51.4L51.3705 22.636Z" fill="white"/>
<path d="M54.0946 26.3115L54.436 24.9233H59.5297C60.0611 24.9233 60.3521 24.8229 60.4027 24.618C60.4406 24.4633 60.314 24.3547 59.9767 24.3547H56.304C55.7053 24.3505 55.2836 24.2251 55.0305 23.9741C54.7692 23.7149 54.6932 23.3637 54.8029 22.9163C54.9252 22.4019 55.2541 21.8918 55.874 21.5572C56.2703 21.3398 56.8607 21.1934 57.5437 21.1934H62.5784L62.2453 22.5315H57.2234C56.7383 22.5315 56.4685 22.6319 56.4221 22.8368C56.3799 23.0124 56.5064 23.096 56.8015 23.096H60.5966C61.1617 23.1002 61.5665 23.2381 61.8068 23.5058C62.0514 23.7777 62.1188 24.1371 62.0135 24.593C61.887 25.1198 61.5875 25.538 61.1195 25.839C60.6557 26.1358 60.0105 26.3115 59.1967 26.3115H54.0946Z" fill="white"/>
<path fill-rule="evenodd" clip-rule="evenodd" d="M76.2404 26.3324H81.8866C82.2155 26.3324 82.5402 26.2071 82.7931 26.0022C83.0462 25.8014 83.2401 25.5213 83.3161 25.2035L83.9653 22.6528C83.9949 22.5399 84.0075 22.4395 84.0075 22.3434C84.0075 22.0758 83.919 21.8333 83.7673 21.6326C83.607 21.4277 83.3876 21.2813 83.1221 21.2186C83.021 21.1935 82.9196 21.181 82.8185 21.181H77.1724C76.8435 21.181 76.523 21.3064 76.2658 21.5113C76.017 21.7078 75.823 21.9879 75.7428 22.3057L75.0935 24.8564C75.0683 24.9693 75.0556 25.0697 75.0556 25.1658C75.0556 25.4335 75.14 25.6801 75.2959 25.8766C75.4519 26.0815 75.6711 26.2278 75.9411 26.2948C76.0381 26.3199 76.1393 26.3324 76.2404 26.3324ZM77.1724 22.6319H82.4643L81.8992 24.8564C81.8976 24.858 81.8961 24.859 81.8941 24.8602C81.8907 24.8624 81.8861 24.8653 81.8781 24.8731H81.8824C81.8845 24.8752 81.8876 24.8762 81.8892 24.8768C81.8908 24.8773 81.8908 24.8773 81.8866 24.8773H76.5947L77.1639 22.6528C77.1639 22.6501 77.1656 22.6492 77.1702 22.6466C77.1728 22.6452 77.1762 22.6433 77.1808 22.6402C77.185 22.6402 77.1808 22.636 77.1766 22.636C77.1724 22.636 77.1682 22.6319 77.1724 22.6319Z" fill="white"/>
<path fill-rule="evenodd" clip-rule="evenodd" d="M53.42 9.52835L51.0291 11.9912L53.3904 14.7007C53.6855 15.1231 53.8206 15.6291 53.7953 16.1182C53.7826 16.4443 53.6941 16.7789 53.5381 17.0757C53.3778 17.3894 53.1375 17.6737 52.817 17.8953C52.4332 18.1588 51.961 18.3219 51.417 18.3092V18.3134H38.6785L41.8072 5.79852H51.8852L52.037 5.81939C52.5598 5.88217 53.0025 6.10372 53.3357 6.41321V6.42154C53.5928 6.66413 53.7826 6.95258 53.9007 7.26627C54.0188 7.58392 54.0566 7.93523 54.0145 8.28654C53.9555 8.72965 53.7657 9.16451 53.42 9.52835ZM49.7726 9.06842H44.118L42.6253 15.0437H49.9581L47.2425 11.6817L49.7726 9.06842Z" fill="white"/>
<path d="M62.9622 14.2157L66.7404 18.3135H71.1889L66.5591 13.2916L69.6077 10.8288C69.8986 10.5988 70.0842 10.2894 70.1685 9.9548L70.7209 7.84326C70.9486 6.96933 70.4215 6.08294 69.5445 5.85709C69.4053 5.81948 69.2661 5.80274 69.1313 5.80274V5.79852H59.3866C58.5727 5.79852 57.8937 6.38401 57.7631 7.15756L55.0011 18.3135H58.3871L60.6768 9.06842H66.5844L63.1393 11.8491V11.8533L63.0677 11.9159C62.3972 12.5222 62.3508 13.5508 62.9622 14.2157Z" fill="white"/>
<path d="M82.6735 15.0395C82.6756 15.0395 82.6765 15.0395 82.6765 15.0394C82.6765 15.0391 82.6686 15.0382 82.6626 15.0352C82.6606 15.0343 82.6589 15.0335 82.6575 15.0329C82.6527 15.0308 82.651 15.0301 82.6542 15.0269C82.6676 15.0159 82.6775 15.0118 82.6838 15.0092C82.6894 15.0069 82.6922 15.0058 82.6922 15.0018L84.9607 5.79852H88.3426L85.8885 15.7712C85.7113 16.4862 85.2771 17.1217 84.7162 17.5691C84.1385 18.0249 83.4091 18.3135 82.6712 18.3135H74.3516C74.1324 18.3135 73.9089 18.2843 73.6854 18.2298C73.0781 18.0835 72.5806 17.7531 72.2265 17.2933C71.8764 16.8459 71.6824 16.2939 71.6824 15.6917C71.6824 15.4785 71.712 15.2485 71.7753 15.0018L74.0396 5.79852H77.4214L75.1485 15.0395L82.6735 15.0395Z" fill="white"/>
<path fill-rule="evenodd" clip-rule="evenodd" d="M117.041 18.3134H108.077C107.853 18.3134 107.625 18.2842 107.397 18.2256C106.799 18.0834 106.302 17.7531 105.947 17.2932C105.601 16.8457 105.408 16.2939 105.408 15.6917C105.408 15.4743 105.436 15.2442 105.496 14.9976L107.148 8.34072V8.34493C107.325 7.62995 107.765 6.99431 108.321 6.55119C108.899 6.09117 109.624 5.80676 110.367 5.80676H119.331C119.554 5.80676 119.782 5.83613 120.006 5.89041C120.604 6.03682 121.101 6.36717 121.455 6.82711C121.806 7.27451 122 7.82651 122 8.42436C122 8.63767 121.97 8.86763 121.907 9.11435V9.12268L120.258 15.7753C120.081 16.4861 119.643 17.1217 119.082 17.5691C118.508 18.029 117.779 18.3134 117.041 18.3134ZM110.367 9.07666C110.353 9.07666 110.361 9.0793 110.371 9.08253C110.373 9.08337 110.376 9.08426 110.379 9.08515C110.383 9.08515 110.388 9.08928 110.383 9.09348C110.369 9.10544 110.358 9.10781 110.352 9.10922C110.348 9.11027 110.346 9.11079 110.346 9.11435V9.12268L108.874 15.0394H117.041C117.043 15.0394 117.045 15.0394 117.046 15.0393C117.046 15.0393 117.046 15.0393 117.046 15.0393C117.047 15.0392 117.046 15.0392 117.046 15.0392C117.045 15.0388 117.036 15.0378 117.029 15.0352C117.027 15.0343 117.025 15.0335 117.023 15.0329C117.018 15.0308 117.017 15.0301 117.02 15.0269C117.045 15.0059 117.062 14.9976 117.062 14.9976L118.529 9.07666H110.367Z" fill="white"/>
<path d="M90.7291 18.3135L92.4369 11.502L102.51 18.2968L105.534 5.79866H102.215L100.444 12.9404L90.5183 5.91991L87.3262 18.3135H90.7291Z" fill="white"/>
</svg>