<svg xmlns:xlink="http://www.w3.org/1999/xlink" xmlns="http://www.w3.org/2000/svg" width="89" height="16" viewBox="0 0 89 16" fill="none">
<path fill-rule="evenodd" clip-rule="evenodd" d="M33.5829 5.86398L28.8958 5.23123L26.2777 0.337181C26.2777 0.147077 26.1302 0 25.9398 0C25.7498 0 25.6023 0.147077 25.6023 0.337181L22.9827 5.25204L18.4432 5.86398C18.274 5.80014 18.0848 5.9056 18.0209 6.0957C17.9573 6.2858 18.042 6.47563 18.2321 6.53834L21.8426 10.3986L20.9341 15.4395C20.8285 15.5868 20.8494 15.8197 20.998 15.9251C21.1452 16.0514 21.3564 16.0098 21.462 15.8613L25.9598 13.5413L30.4574 15.8613C30.563 16.0087 30.7742 16.0514 30.9217 15.9251C31.0689 15.7989 31.1117 15.588 30.9853 15.4395L30.0991 10.5041L33.8149 6.53834C33.9843 6.4745 34.0677 6.2858 34.0052 6.0957C33.9413 5.9056 33.7521 5.80014 33.5829 5.86398Z" fill="#D2D4D8"/>
<path fill-rule="evenodd" clip-rule="evenodd" d="M15.5829 5.86398L10.8958 5.23123L8.27768 0.337181C8.27768 0.147077 8.13016 0 7.93985 0C7.74982 0 7.6023 0.147077 7.6023 0.337181L4.98274 5.25204L0.443193 5.86398C0.273998 5.80014 0.0848149 5.9056 0.0209093 6.0957C-0.0427147 6.2858 0.0420235 6.47563 0.232051 6.53834L3.84257 10.3986L2.9341 15.4395C2.82853 15.5868 2.84936 15.8197 2.99801 15.9251C3.14524 16.0514 3.35638 16.0098 3.46196 15.8613L7.95984 13.5413L12.4574 15.8613C12.563 16.0087 12.7741 16.0514 12.9217 15.9251C13.0689 15.7989 13.1117 15.588 12.9853 15.4395L12.0991 10.5041L15.8149 6.53834C15.9843 6.4745 16.0677 6.2858 16.0052 6.0957C15.9413 5.9056 15.7521 5.80014 15.5829 5.86398Z" fill="#D2D4D8"/>
<path fill-rule="evenodd" clip-rule="evenodd" d="M51.5829 5.86398L46.8958 5.23123L44.2777 0.337181C44.2777 0.147077 44.1302 0 43.9399 0C43.7498 0 43.6023 0.147077 43.6023 0.337181L40.9827 5.25204L36.4432 5.86398C36.274 5.80014 36.0848 5.9056 36.0209 6.0957C35.9573 6.2858 36.042 6.47563 36.2321 6.53834L39.8426 10.3986L38.9341 15.4395C38.8285 15.5868 38.8494 15.8197 38.998 15.9251C39.1452 16.0514 39.3564 16.0098 39.462 15.8613L43.9598 13.5413L48.4574 15.8613C48.563 16.0087 48.7741 16.0514 48.9217 15.9251C49.0689 15.7989 49.1117 15.588 48.9853 15.4395L48.0991 10.5041L51.8149 6.53834C51.9843 6.4745 52.0677 6.2858 52.0052 6.0957C51.9413 5.9056 51.7521 5.80014 51.5829 5.86398Z" fill="#D2D4D8"/>
<path fill-rule="evenodd" clip-rule="evenodd" d="M69.5829 5.86398L64.8958 5.23123L62.2777 0.337181C62.2777 0.147077 62.1302 0 61.9399 0C61.7498 0 61.6023 0.147077 61.6023 0.337181L58.9827 5.25204L54.4432 5.86398C54.274 5.80014 54.0848 5.9056 54.0209 6.0957C53.9573 6.2858 54.042 6.47563 54.2321 6.53834L57.8426 10.3986L56.9341 15.4395C56.8285 15.5868 56.8494 15.8197 56.998 15.9251C57.1452 16.0514 57.3564 16.0098 57.462 15.8613L61.9598 13.5413L66.4574 15.8613C66.563 16.0087 66.7742 16.0514 66.9217 15.9251C67.0689 15.7989 67.1117 15.588 66.9853 15.4395L66.0991 10.5041L69.8149 6.53834C69.9844 6.4745 70.0677 6.2858 70.0052 6.0957C69.9413 5.9056 69.7521 5.80014 69.5829 5.86398Z" fill="#D2D4D8"/>
<path fill-rule="evenodd" clip-rule="evenodd" d="M87.5829 5.86398L82.8958 5.23123L80.2777 0.337181C80.2777 0.147077 80.1302 0 79.9398 0C79.7498 0 79.6023 0.147077 79.6023 0.337181L76.9827 5.25204L72.4432 5.86398C72.274 5.80014 72.0848 5.9056 72.0209 6.0957C71.9573 6.2858 72.042 6.47563 72.232 6.53834L75.8426 10.3986L74.9341 15.4395C74.8285 15.5868 74.8494 15.8197 74.998 15.9251C75.1452 16.0514 75.3564 16.0098 75.462 15.8613L79.9598 13.5413L84.4574 15.8613C84.563 16.0087 84.7741 16.0514 84.9217 15.9251C85.0689 15.7989 85.1117 15.588 84.9853 15.4395L84.0991 10.5041L87.8149 6.53834C87.9843 6.4745 88.0677 6.2858 88.0052 6.0957C87.9413 5.9056 87.7521 5.80014 87.5829 5.86398Z" fill="#D2D4D8"/>
</svg>